<svg width="1307" height="839" viewBox="0 0 1307 839" fill="none" xmlns="http://www.w3.org/2000/svg">
<g clip-path="url(#clip0)">
<path d="M14.3156 226.899C8.41041 199.706 5.93967 169.53 11.173 142.037C12.3314 135.952 20.5247 104.462 32.8208 115.833C53.4403 134.902 57.8745 174.192 64.0294 199.998" stroke="#459BC1" stroke-width="6" stroke-linecap="round"/>
<path d="M0.000232368 199.239C10.4298 186.218 24.2665 177.031 36.5146 165.822" stroke="#459BC1" stroke-width="6" stroke-linecap="round"/>
<path d="M91.7772 206.306C81.9143 183.019 73.0979 154.034 87.4861 131.043" stroke="#459BC1" stroke-width="6" stroke-linecap="round"/>
<path d="M110.118 86C123.687 112.435 131.872 140.305 143.13 167.667C150.163 184.761 164.006 203.618 181.693 187.603" stroke="#459BC1" stroke-width="6" stroke-linecap="round"/>
<path d="M130.998 156.993C137.649 146.022 144.188 136.693 153.305 127.952" stroke="#459BC1" stroke-width="6" stroke-linecap="round"/>
<path d="M82.1992 286.962C87.2277 296.602 90.8582 306.512 94.9024 316.553" stroke="#459BC1" stroke-width="6" stroke-linecap="round"/>
<path d="M118.178 274.541C99.7427 290.348 113.367 294.952 126.281 305.31C134.571 311.96 127.985 321.988 119.874 323.664" stroke="#459BC1" stroke-width="6" stroke-linecap="round"/>
<path d="M182.368 258.366C173.53 267.475 173.172 276.472 177.666 288.197C180.948 296.761 187.094 300.504 191.921 290.732C193.251 288.04 193.969 275.55 197.112 278.481C203.29 284.241 208.155 283.593 215.603 280.781" stroke="#459BC1" stroke-width="6" stroke-linecap="round"/>
<path d="M246.351 241.962C247.852 244.797 264.187 275.883 270.56 261.104C272.334 256.99 271.127 235.686 274.551 238.693C277.723 241.479 291.855 254.18 292.357 242.844C292.78 233.29 285.312 229.985 283.821 222.82" stroke="#459BC1" stroke-width="6" stroke-linecap="round"/>
<path d="M311.281 215.898C309.179 222.045 304.692 246.176 319.219 243.86C330.089 242.128 329.898 224.762 328.941 217.108C328.249 211.576 336.631 225.876 339.155 227.406C351.236 234.727 351.205 213.685 352.361 208.727C352.808 206.808 361.597 216.674 366.722 212.146C372.102 207.391 367.634 186.41 372.761 191.438C377.423 196.009 381.094 201.44 385.991 205.936C392.826 212.212 403.561 218.781 407.882 227.239C419.421 249.822 375.457 279.518 361.721 291.333" stroke="#459BC1" stroke-width="6" stroke-linecap="round"/>
<path d="M453.663 281.892C449.385 293.781 447.201 306.705 459.461 314.482C468.162 320.002 474.723 311.983 475.334 303.274C476.203 290.873 468.641 279.825 456.238 279.4" stroke="#459BC1" stroke-width="6" stroke-linecap="round"/>
<path d="M476.655 265.251C488.51 256.111 493.387 245.386 492.119 230.027C492.1 229.79 489.85 217.112 486.71 219.863C481.545 224.389 496.83 250.606 498.697 254.088C514.629 283.801 548.01 319.198 546.779 355.1C546.55 361.797 539.989 369.601 533.94 361.728C523.776 348.499 526.269 329.579 526.79 314.365" stroke="#459BC1" stroke-width="6" stroke-linecap="round"/>
<path d="M619.212 199.581C631.497 231.317 643.769 286.424 676.932 302.413C703.581 315.261 723.681 287.76 737.096 268.995" stroke="#459BC1" stroke-width="6" stroke-linecap="round"/>
<path d="M739.662 194.123C750.483 213.39 761.4 232.292 769.9 252.677" stroke="#459BC1" stroke-width="6" stroke-linecap="round"/>
<path d="M792.391 181.244C827.114 186.026 835.957 148.615 830.69 119.209C829.626 113.27 824.063 90.5761 813.634 93.2298C797.855 97.2452 824.056 153.192 826.789 159.4C844.735 200.177 869.277 238.332 882.343 281.163C887.291 297.386 895.445 334.24 873.476 343.509C855.529 351.081 840.143 325.481 836.851 311.696C830.977 287.091 841.578 263.1 850.911 241.017" stroke="#459BC1" stroke-width="6" stroke-linecap="round"/>
<path d="M882.518 193.968C893.791 177.494 906.609 158.069 908.875 137.714C910.769 120.702 897.8 107.837 887.7 127.809C873.745 155.405 888.753 187.153 915.352 199.822C952.896 217.703 984.213 195.014 1013.14 173.412" stroke="#459BC1" stroke-width="6" stroke-linecap="round"/>
<path d="M287.536 617.443C294.831 586.546 300.057 549.817 319.026 522.159C325.736 512.376 331.445 518.061 332.725 526.341C335.104 541.732 330.329 558.886 327.032 573.834C319.617 607.446 311.035 645.991 284.868 673.449C264.367 694.961 277.069 664.513 285.757 656.274C303.38 639.563 328.302 626.75 355.142 624.612C390.374 621.806 357.573 633.804 342.688 635.664C335.229 636.596 257.42 640.567 258.003 632.976C258.123 631.416 260.8 630.861 262.451 630.138C269.005 627.267 290.444 620.626 294.653 619.236C321.521 610.355 347.509 600.153 374 590.561" stroke="#459BC1" stroke-width="6" stroke-linecap="round"/>
<path d="M369 541.932C392.605 562.796 414.106 582.926 426.704 610.086C434.52 626.937 432.87 625.569 432.157 608.16C431.783 599.027 426.525 581.197 435.5 573.638C445.662 565.08 460.405 589.997 462.593 594.677C464.34 598.415 471.938 613.024 468.398 617.198C466.704 619.195 453.934 594.916 452.917 592.899C449.365 585.862 439.99 576.098 447.111 568.601C459.764 555.281 488.702 549.839 506.926 545.191C522.541 541.209 539.742 537.447 555.833 541.784C561.016 543.18 550.226 531.97 548.093 527.56C539.644 510.095 553.232 511.57 568.5 501.336C605.264 476.692 508.156 563.525 490.389 600.159C478.407 624.866 522.728 612.732 534.37 608.901C563.222 599.408 589.541 584.638 616 571.268" stroke="#459BC1" stroke-width="6" stroke-linecap="round"/>
</g>
<defs>
<clipPath id="clip0">
<rect width="1307" height="839" fill="white"/>
</clipPath>
</defs>
</svg>
